<svg width="36" height="36" viewBox="0 0 36 36" fill="none" xmlns="http://www.w3.org/2000/svg">
<path d="M24.1875 5.85498C25.1888 5.85508 26.1819 6.0518 27.1069 6.43506C28.0319 6.8184 28.8732 7.38076 29.5811 8.08887L29.8389 8.36133C30.4261 9.00914 30.8994 9.75351 31.2349 10.563C31.6182 11.4882 31.8149 12.4809 31.8149 13.4824C31.8149 14.4836 31.618 15.4754 31.2349 16.4004C30.8516 17.3254 30.2891 18.1666 29.5811 18.8745L18.5303 29.9253C18.2375 30.2176 17.7625 30.2177 17.4697 29.9253L6.42041 18.8745C4.99033 17.4443 4.18657 15.505 4.18652 13.4824C4.18655 11.4598 4.99016 9.51911 6.42041 8.08887C7.85046 6.65922 9.79038 5.85515 11.8125 5.85498C13.8348 5.85517 15.776 6.65892 17.2061 8.08887L18 8.88281L18.7954 8.08887C19.5033 7.38085 20.3446 6.81832 21.2695 6.43506C22.1944 6.05201 23.1865 5.85506 24.1875 5.85498Z" fill="#1361E6"/>
</svg>
